<svg width="76" height="76" viewBox="0 0 76 76" fill="none" xmlns="http://www.w3.org/2000/svg">
<circle cx="38" cy="38" r="38" fill="white" fill-opacity="0.02"/>
<g clip-path="url(#clip0_38_180)">
<path d="M38.5 52.7783C35.4782 52.7783 32.5242 51.8823 30.0117 50.2034C27.4991 48.5246 25.5409 46.1384 24.3845 43.3466C23.2281 40.5548 22.9255 37.4828 23.515 34.5191C24.1045 31.5553 25.5597 28.8329 27.6964 26.6962C29.8332 24.5594 32.5556 23.1043 35.5193 22.5148C38.4831 21.9252 41.5551 22.2278 44.3469 23.3842C47.1387 24.5406 49.5249 26.4989 51.2037 29.0114C52.8825 31.524 53.7786 34.478 53.7786 37.4998C53.7739 41.5505 52.1627 45.4339 49.2984 48.2982C46.4341 51.1624 42.5507 52.7737 38.5 52.7783ZM38.5 24.4355C35.9161 24.4355 33.3903 25.2017 31.2419 26.6372C29.0935 28.0727 27.419 30.1131 26.4302 32.5003C25.4414 34.8875 25.1827 37.5143 25.6868 40.0485C26.1908 42.5827 27.4351 44.9105 29.2622 46.7376C31.0892 48.5647 33.4171 49.8089 35.9513 50.313C38.4855 50.8171 41.1123 50.5584 43.4995 49.5696C45.8867 48.5808 47.927 46.9063 49.3626 44.7579C50.7981 42.6095 51.5643 40.0836 51.5643 37.4998C51.5596 34.0363 50.1817 30.7161 47.7327 28.2671C45.2837 25.8181 41.9634 24.4402 38.5 24.4355Z" fill="white"/>
<path d="M31.4231 37.2076C28.946 37.2105 26.4907 36.7447 24.1868 35.8347C24.0406 35.7904 23.9051 35.7163 23.7889 35.6171C23.6727 35.5179 23.5783 35.3956 23.5116 35.2581C23.445 35.1206 23.4075 34.9708 23.4016 34.8181C23.3957 34.6654 23.4214 34.5132 23.4772 34.3709C23.533 34.2286 23.6177 34.0995 23.7258 33.9915C23.834 33.8836 23.9633 33.7992 24.1057 33.7437C24.248 33.6882 24.4004 33.6627 24.553 33.669C24.7057 33.6752 24.8555 33.713 24.9928 33.7799C27.4253 34.7206 30.0348 35.1154 32.6367 34.9363C35.2385 34.7572 37.7693 34.0087 40.05 32.7436C42.8288 31.1865 45.1313 28.9024 46.7106 26.1362C46.8555 25.8818 47.0953 25.6952 47.3775 25.6172C47.6596 25.5392 47.9612 25.5761 48.2163 25.7199C48.4712 25.8665 48.658 26.1079 48.736 26.3915C48.8139 26.6752 48.7768 26.9781 48.6326 27.2345C46.8538 30.3466 44.2641 32.9179 41.1394 34.6745C38.1711 36.3373 34.8254 37.2095 31.4231 37.2076Z" fill="white"/>
<path d="M29.7314 49.7408C29.5663 49.7395 29.4033 49.7033 29.2532 49.6345C29.1223 49.5711 29.0052 49.4826 28.9086 49.3739C28.8119 49.2653 28.7376 49.1387 28.6899 49.0013C28.6422 48.864 28.6221 48.7186 28.6306 48.5734C28.639 48.4283 28.676 48.2862 28.7394 48.1554C30.8414 43.7992 34.4634 40.3619 38.9236 38.4907C43.3837 36.6195 48.3741 36.4437 52.9549 37.9962C53.097 38.04 53.2289 38.1119 53.3426 38.2078C53.4563 38.3036 53.5496 38.4214 53.6168 38.554C53.684 38.6867 53.7238 38.8316 53.7338 38.98C53.7438 39.1284 53.7238 39.2772 53.675 39.4177C53.6261 39.5582 53.5495 39.6874 53.4497 39.7977C53.3498 39.9079 53.2288 39.9969 53.0938 40.0593C52.9588 40.1217 52.8126 40.1563 52.664 40.1609C52.5153 40.1656 52.3672 40.1403 52.2286 40.0865C48.1613 38.7094 43.7309 38.8669 39.7716 40.5292C35.8123 42.1915 32.5974 45.244 30.7323 49.1119C30.6419 49.3006 30.5 49.4598 30.3228 49.5711C30.1457 49.6824 29.9406 49.7412 29.7314 49.7408Z" fill="white"/>
<path d="M43.2031 51.9728H42.9374C42.7961 51.9385 42.6629 51.8767 42.5454 51.7909C42.428 51.7052 42.3286 51.5971 42.2529 51.4729C42.1772 51.3487 42.1268 51.2108 42.1044 51.0671C42.082 50.9234 42.0882 50.7767 42.1225 50.6354C42.5136 48.9751 42.7098 47.2748 42.7071 45.5691C42.7079 43.2812 42.3524 41.0072 41.6531 38.8288C41.1541 37.2497 40.4734 35.7338 39.6248 34.3117C37.5784 30.8469 34.6266 28.0053 31.0865 26.0922C30.8281 25.9525 30.6359 25.7158 30.552 25.4342C30.4681 25.1527 30.4995 24.8493 30.6393 24.5909C30.779 24.3325 31.0157 24.1403 31.2973 24.0564C31.5788 23.9725 31.8821 24.0039 32.1405 24.1437C36.0275 26.2373 39.2727 29.3477 41.5291 33.1425C42.4663 34.7094 43.2183 36.3798 43.77 38.1202C44.5341 40.5202 44.9225 43.0238 44.9214 45.5425C44.9258 47.4215 44.7088 49.2944 44.2748 51.1225C44.2159 51.3631 44.0786 51.5772 43.8845 51.7311C43.6905 51.8851 43.4508 51.9701 43.2031 51.9728Z" fill="white"/>
</g>
<defs>
<clipPath id="clip0_38_180">
<rect width="31" height="31" fill="white" transform="translate(23 22)"/>
</clipPath>
</defs>
</svg>
