<svg width="76" height="76" viewBox="0 0 76 76" fill="none" xmlns="http://www.w3.org/2000/svg">
<circle cx="38" cy="38" r="38" fill="white" fill-opacity="0.02"/>
<path d="M31.123 43.8061C31.5097 43.8061 31.8778 43.7718 32.2239 43.6942C32.5754 43.618 32.8865 43.4957 33.1502 43.3158C33.4125 43.1427 33.6309 42.9051 33.7889 42.6044C33.9475 42.305 34.0237 41.9163 34.0237 41.4473C34.0237 40.5278 33.7641 39.874 33.2498 39.4778C32.7334 39.0864 32.046 38.8921 31.2007 38.8921H26.9286V43.8061H31.123ZM30.9054 36.2098C31.601 36.2098 32.1779 36.0449 32.6345 35.7098C33.0864 35.3795 33.3047 34.835 33.3047 34.0865C33.3047 33.6717 33.2326 33.3284 33.0864 33.0619C32.9346 32.7955 32.7334 32.5874 32.4807 32.4411C32.2294 32.2893 31.945 32.185 31.6161 32.128C31.292 32.0648 30.9534 32.0401 30.6053 32.0401H26.9286V36.2098H30.9054ZM31.4136 29C32.2671 29 33.0376 29.0735 33.7415 29.2267C34.4419 29.375 35.0387 29.6229 35.5441 29.9628C36.0413 30.3027 36.4306 30.7546 36.7094 31.3238C36.9807 31.8849 37.1174 32.5874 37.1174 33.4176C37.1174 34.3158 36.914 35.0664 36.5055 35.6666C36.0948 36.2654 35.4912 36.7564 34.6857 37.1382C35.7824 37.4541 36.5968 38.0096 37.1359 38.8C37.6777 39.5959 37.9434 40.5477 37.9434 41.6643C37.9434 42.5693 37.7704 43.3481 37.4236 44.0039C37.0741 44.6673 36.5982 45.205 36.0117 45.6197C35.4205 46.0379 34.7427 46.3456 33.9819 46.5454C33.2299 46.7445 32.4491 46.8455 31.6484 46.8455H23V29H31.4136Z" fill="white"/>
<path d="M47.6098 36.9595C47.1875 36.4932 46.474 36.2406 45.6026 36.2406C45.0354 36.2406 44.5663 36.336 44.19 36.5303C43.8219 36.7226 43.5212 36.9609 43.2911 37.2424C43.0617 37.5281 42.9066 37.8303 42.8152 38.153C42.7246 38.4675 42.6697 38.7525 42.6538 39.0046H48.4277C48.3432 38.0994 48.0335 37.4299 47.6098 36.9595ZM43.5315 43.749C44.0637 44.2682 44.8321 44.5291 45.8278 44.5291C46.5433 44.5291 47.1614 44.3485 47.6805 43.9873C48.1949 43.6268 48.508 43.2415 48.6289 42.8419H51.7548C51.2521 44.3973 50.4906 45.5077 49.4502 46.1765C48.4222 46.8475 47.1697 47.1818 45.709 47.1818C44.6913 47.1818 43.7752 47.0171 42.9526 46.6929C42.1305 46.364 41.4439 45.9039 40.8657 45.303C40.3025 44.7001 39.8651 43.9873 39.5534 43.1502C39.245 42.3172 39.0898 41.395 39.0898 40.3958C39.0898 39.4296 39.2512 38.5273 39.5671 37.6929C39.8885 36.8558 40.3348 36.1334 40.9206 35.5278C41.5077 34.9186 42.2034 34.4379 43.0137 34.0863C43.8247 33.7368 44.7188 33.561 45.709 33.561C46.8022 33.561 47.7588 33.7711 48.5801 34.1996C49.3973 34.6227 50.0682 35.1954 50.5949 35.9123C51.121 36.6279 51.4966 37.4464 51.7307 38.3645C51.9628 39.2813 52.0445 40.2386 51.978 41.2411H42.6538C42.6538 42.263 42.9986 43.2298 43.5315 43.749Z" fill="white"/>
<path d="M49.2749 30.1895H42.0411V31.9501H49.2749V30.1895Z" fill="white"/>
</svg>
