<svg width="76" height="76" viewBox="0 0 76 76" fill="none" xmlns="http://www.w3.org/2000/svg">
<circle cx="38" cy="38" r="38" fill="white" fill-opacity="0.02"/>
<path d="M37.542 29.9771C33.4377 29.9771 30.037 33.3191 30.037 37.4821C30.037 41.645 33.3791 44.9871 37.542 44.9871C41.705 44.9871 45.0471 41.5864 45.0471 37.4821C45.0471 33.3778 41.6463 29.9771 37.542 29.9771ZM37.542 42.29C34.9035 42.29 32.7341 40.1206 32.7341 37.4821C32.7341 34.8436 34.9035 32.6742 37.542 32.6742C40.1805 32.6742 42.3499 34.8436 42.3499 37.4821C42.3499 40.1206 40.1805 42.29 37.542 42.29Z" fill="white"/>
<path d="M45.3384 31.5018C46.2775 31.5018 47.0388 30.7405 47.0388 29.8014C47.0388 28.8624 46.2775 28.1011 45.3384 28.1011C44.3993 28.1011 43.6381 28.8624 43.6381 29.8014C43.6381 30.7405 44.3993 31.5018 45.3384 31.5018Z" fill="white"/>
<path d="M49.7367 25.404C48.2122 23.8209 46.0428 23 43.5802 23H31.5018C26.4007 23 23 26.4007 23 31.5018V43.5216C23 46.0428 23.8209 48.2122 25.4626 49.7953C27.0457 51.3198 29.1565 52.082 31.5604 52.082H43.5216C46.0428 52.082 48.1536 51.2612 49.6781 49.7953C51.2612 48.2709 52.082 46.1015 52.082 43.5802V31.5018C52.082 29.0392 51.2612 26.9284 49.7367 25.404ZM49.5022 43.5802C49.5022 45.3979 48.8572 46.8637 47.8018 47.8604C46.7464 48.8572 45.2806 49.3849 43.5216 49.3849H31.5604C29.8014 49.3849 28.3356 48.8572 27.2802 47.8604C26.2248 46.8051 25.6971 45.3392 25.6971 43.5216V31.5018C25.6971 29.7428 26.2248 28.277 27.2802 27.2216C28.277 26.2248 29.8014 25.6971 31.5604 25.6971H43.6389C45.3979 25.6971 46.8637 26.2248 47.9191 27.2802C48.9158 28.3356 49.5022 29.8014 49.5022 31.5018V43.5802Z" fill="white"/>
</svg>
